<svg version="1.1" id="icons" xmlns="http://www.w3.org/2000/svg" x="0" y="0" viewBox="0 0 64 64" style="enable-background:new 0 0 64 64" xml:space="preserve"><style>.st0{display:none}.st1{fill:none;stroke:#414042;stroke-miterlimit:10;stroke-dasharray:2}.st1,.st2{display:inline}.st3{fill:none;stroke:#414042;stroke-miterlimit:10}.st6{fill:#f5ab35}.st6,.st7,.st8{display:inline}.st7{fill:none;stroke:#414042;stroke-miterlimit:10}.st8{fill:#29a189}.st10,.st11,.st9{display:inline;fill:#5edfc5}.st10,.st11{fill:#36d7b7}.st11{fill:#f7bc5d}.st12,.st13,.st14{display:inline;fill:#fff}.st13,.st14{fill:#f1f2f2}.st14{fill:#e6e7e8}.st16,.st17,.st18{display:inline;fill:#86e7d4}.st17,.st18{fill:#d1d3d4}.st18{fill:#6d6e71}.st19{fill:#36d7b7}.st20{fill:#a7a9ac}.st21{fill:#5edfc5}.st23{fill:#e6e7e8}.st24{fill:#d1d3d4}.st25{fill:#f1f2f2}.st26{fill:#86e7d4}.st27{fill:#f5ab35}.st29{fill:#bcbec0}.st30{fill:#fff}.st31{fill:#f9cd86}.st32{fill:#414042}.st34{fill:#6d6e71}.st35{display:inline;fill:#f9cd86}.st36{fill:none;stroke:#bcbec0;stroke-linecap:round;stroke-miterlimit:10}.st37{fill:#f7bc5d}.st42,.st43{fill:none;stroke-miterlimit:10}.st42{stroke:#414042;stroke-linecap:round}.st43{display:inline;stroke:#f5ab35}.st45{fill:#414042}.st45,.st46,.st47{display:inline}.st46{fill:none;stroke:#414042;stroke-linecap:round;stroke-miterlimit:10}.st47{opacity:.26;fill:#231f20}.st51{fill:none;stroke:#bcbec0;stroke-miterlimit:10}</style><g id="XMLID_287_"><path id="XMLID_284_" class="st25" d="M32.2 53.9h-.4c-5.4 0-9.9-11.9-9.9-14.4V24.9c0-5.4 4.4-9.9 9.9-9.9h.4c5.4 0 9.9 4.4 9.9 9.9v14.7c0 2.5-4.4 14.3-9.9 14.3z"/><path id="XMLID_122_" class="st3" d="M38.3 49.3c-1.7 2.6-3.8 4.6-6 4.6h-.4c-2.3 0-4.3-2.1-6-4.6"/><path id="XMLID_299_" class="st29" d="M22 27.8v12.7c.3 1.5 1.1 4 2.4 6.4C26 46 27 44.4 27 42.5v-9.7c0-2.8-2.2-5-5-5z"/><path id="XMLID_301_" class="st29" d="M37.1 32.8v9.7c0 1.9 1.1 3.5 2.6 4.3 1.4-2.8 2.3-5.6 2.4-6.9V27.8c-2.8 0-5 2.2-5 5z"/><path id="XMLID_295_" class="st24" d="M32 13.8c-5.6 0-10.1 4.5-10.1 10.1v3.6c0 .6 1.6.6 2.3.6 7.9.4 7.8 3.4 7.8 3.4s.1-2.9 8.1-3.4c.6 0 2 0 2-.6v-3.6c0-5.5-4.5-10.1-10.1-10.1z"/><path id="XMLID_286_" class="st3" d="M24.2 28.2c7.9.4 7.8 3.4 7.8 3.4s.1-2.9 8.1-3.4"/><path id="XMLID_275_" class="st30" d="M44.8 47.2H15.2V44h29.6l3.9 1.5c.1 0 .1.1 0 .2l-3.9 1.5z"/><path id="XMLID_274_" class="st27" d="M15.2 44h29.6v3.1H15.2z"/><path id="XMLID_273_" class="st31" d="M15.2 44h29.6v1.6H15.2z"/><path id="XMLID_272_" class="st30" d="M15.2 43.9h3.7v3.3h-3.7z"/><path id="XMLID_271_" class="st3" d="M44.8 47.2H15.2V44h29.6l3.9 1.5c.1 0 .1.1 0 .2l-3.9 1.5z"/><path id="XMLID_268_" class="st3" d="M18.9 44v2.8"/><path id="XMLID_266_" class="st3" d="M44.8 44.2V47"/><circle id="XMLID_260_" class="st29" cx="27" cy="22.5" r="4.3"/><circle id="XMLID_264_" class="st30" cx="27.5" cy="21.6" r="4.3"/><circle id="XMLID_300_" class="st29" cx="37.2" cy="22.3" r="4.3"/><circle id="XMLID_263_" class="st30" cx="36.4" cy="21.6" r="4.3"/><circle id="XMLID_261_" class="st3" cx="27.5" cy="21.6" r="4.3"/><circle id="XMLID_262_" class="st3" cx="36.4" cy="21.6" r="4.3"/><circle id="XMLID_267_" class="st32" cx="35.3" cy="21.4" r="1.5"/><circle id="XMLID_265_" class="st32" cx="28.5" cy="21.4" r="1.5"/><path id="XMLID_270_" class="st3" d="M41.9 13.1c-1.6 4.4-6.7 4-6.7 4-1.3 0-2.4 1.1-2.4 2.4"/><path id="XMLID_316_" class="st3" d="M22 13.1c1.6 4.4 6.7 4 6.7 4 1.3 0 2.4 1.1 2.4 2.4"/><g id="XMLID_314_"><path id="XMLID_278_" class="st27" d="m30.4 23.9 1.4 4c.1.2.3.2.5 0l1.4-4c.1-.2.1-.6-.2-.7l-1-.8c-.2-.1-.6-.1-.8 0l-1 .8c-.4.2-.4.5-.3.7z"/><path id="XMLID_277_" class="st31" d="M32 22.3c-.1 0-.3 0-.4.1l-1 .8c-.2.1-.3.5-.2.7l1.4 4 .2.2v-5.8z"/></g><path id="XMLID_269_" class="st3" d="M28.9 32.8v2.8"/><path id="XMLID_309_" class="st3" d="M32.2 32.8v2.8"/><path id="XMLID_311_" class="st3" d="M35.1 32.8v2.8"/><path id="XMLID_313_" class="st3" d="M30.5 37.3v2.9"/><path id="XMLID_312_" class="st3" d="M34.1 37.3v2.9"/><path id="XMLID_318_" style="fill:#58595b" d="M26.1 10.1h11.7v5.5H26.1z"/><path id="XMLID_279_" class="st34" d="M26.1 10.1h5.8v5.5h-5.8z"/><path id="XMLID_322_" class="st3" d="M20.4 10.1h24.1"/><path id="XMLID_305_" class="st3" d="M41.5 20.8V10.2"/><path id="XMLID_320_" class="st3" d="M26.1 10.1h11.7v5.5H26.1z"/><path id="XMLID_321_" class="st3" d="M36.8 44.2v1.4"/><path id="XMLID_276_" class="st3" d="M34.9 44.2v2.1"/><path id="XMLID_280_" class="st3" d="M33 44.2v1.4"/><path id="XMLID_283_" class="st3" d="M29.8 44.2v1.4"/><path id="XMLID_282_" class="st3" d="M27.9 44.2v2.1"/><path id="XMLID_281_" class="st3" d="M26 44.2v1.4"/><path id="XMLID_285_" class="st3" d="M42.1 27.8c-2.8 0-5 2.3-5 5v9.7"/><path id="XMLID_288_" class="st3" d="M22 27.8c2.8 0 5 2.3 5 5v9.7"/></g></svg>